# xmcd
#
# Track frame offsets:
#	150
#	14075
#	30077
#	47815
#	62967
#	75547
#	92197
#	104555
#	121405
#	137787
#
# Disc length: 2063 seconds
#
# Revision: 3
# Processed by: cddbd v1.5.2PL0 Copyright (c) Steve Scherf et al.
# Submitted via: EZCDAudioConverter 6.0.9.1
#
DISCID=85080d0a
DTITLE=Joe Diffie - Super Hits
DYEAR=2002
DGENRE=Country
TTITLE0=Third Rock from the Sun
TTITLE1=So Help Me Girl
TTITLE2=Bigger than the Beatles
TTITLE3=Home
TTITLE4=If the Devil Danced
TTITLE5=Ships that Don't Come In
TTITLE6=New Way
TTITLE7=If You Want Me To
TTITLE8=Pickup Man
TTITLE9=Prop Me Up Besides the Jukebox
EXTD=
EXTT0=
EXTT1=
EXTT2=
EXTT3=
EXTT4=
EXTT5=
EXTT6=
EXTT7=
EXTT8=
EXTT9=
PLAYORDER=
